<mxfile host="app.diagrams.net" agent="Mozilla/5.0 (X11; Linux x86_64; rv:133.0) Gecko/20100101 Firefox/133.0" version="28.0.3">
  <diagram id="R2lEEEUBdFMjLlhIrx00" name="Page-1">
    <mxGraphModel dx="-95" dy="327" grid="1" gridSize="9" guides="1" tooltips="1" connect="1" arrows="1" fold="1" page="1" pageScale="1" pageWidth="850" pageHeight="1100" math="0" shadow="0" extFonts="Permanent Marker^https://fonts.googleapis.com/css?family=Permanent+Marker">
      <root>
        <mxCell id="0" />
        <mxCell id="1" parent="0" />
        <mxCell id="rY-ANVgnu5SDja6ZdUfx-318" value="" style="rounded=0;whiteSpace=wrap;html=1;labelBackgroundColor=none;" vertex="1" parent="1">
          <mxGeometry x="1014" y="387" width="680" height="1100" as="geometry" />
        </mxCell>
        <mxCell id="rY-ANVgnu5SDja6ZdUfx-319" style="edgeStyle=none;shape=connector;rounded=0;orthogonalLoop=1;jettySize=auto;html=1;strokeColor=default;align=center;verticalAlign=middle;fontFamily=Helvetica;fontSize=11;fontColor=default;labelBackgroundColor=default;endArrow=classic;" edge="1" parent="1" source="rY-ANVgnu5SDja6ZdUfx-322" target="rY-ANVgnu5SDja6ZdUfx-334">
          <mxGeometry relative="1" as="geometry" />
        </mxCell>
        <mxCell id="rY-ANVgnu5SDja6ZdUfx-320" style="edgeStyle=none;shape=connector;rounded=0;orthogonalLoop=1;jettySize=auto;html=1;strokeColor=default;align=center;verticalAlign=middle;fontFamily=Helvetica;fontSize=11;fontColor=default;labelBackgroundColor=default;endArrow=classic;" edge="1" parent="1" source="rY-ANVgnu5SDja6ZdUfx-322" target="rY-ANVgnu5SDja6ZdUfx-324">
          <mxGeometry relative="1" as="geometry" />
        </mxCell>
        <mxCell id="rY-ANVgnu5SDja6ZdUfx-321" style="edgeStyle=none;shape=connector;rounded=0;orthogonalLoop=1;jettySize=auto;html=1;strokeColor=default;align=center;verticalAlign=middle;fontFamily=Helvetica;fontSize=11;fontColor=default;labelBackgroundColor=default;endArrow=classic;" edge="1" parent="1" source="rY-ANVgnu5SDja6ZdUfx-322" target="rY-ANVgnu5SDja6ZdUfx-331">
          <mxGeometry relative="1" as="geometry" />
        </mxCell>
        <mxCell id="rY-ANVgnu5SDja6ZdUfx-322" value="&lt;div&gt;User&lt;/div&gt;" style="shape=umlActor;verticalLabelPosition=bottom;verticalAlign=top;html=1;outlineConnect=0;labelBackgroundColor=none;" vertex="1" parent="1">
          <mxGeometry x="864" y="797" width="91" height="160" as="geometry" />
        </mxCell>
        <mxCell id="rY-ANVgnu5SDja6ZdUfx-323" value="&lt;div&gt;User Login&lt;/div&gt;" style="ellipse;whiteSpace=wrap;html=1;labelBackgroundColor=none;" vertex="1" parent="1">
          <mxGeometry x="1034" y="417" width="120" height="60" as="geometry" />
        </mxCell>
        <mxCell id="rY-ANVgnu5SDja6ZdUfx-324" value="&lt;div&gt;User Logout&lt;/div&gt;" style="ellipse;whiteSpace=wrap;html=1;labelBackgroundColor=none;" vertex="1" parent="1">
          <mxGeometry x="1054" y="1017" width="120" height="60" as="geometry" />
        </mxCell>
        <mxCell id="rY-ANVgnu5SDja6ZdUfx-325" value="View User Dashboard" style="ellipse;whiteSpace=wrap;html=1;labelBackgroundColor=none;" vertex="1" parent="1">
          <mxGeometry x="1074" y="497" width="120" height="60" as="geometry" />
        </mxCell>
        <mxCell id="rY-ANVgnu5SDja6ZdUfx-326" value="View My Warning Messages" style="ellipse;whiteSpace=wrap;html=1;labelBackgroundColor=none;" vertex="1" parent="1">
          <mxGeometry x="1084" y="847" width="120" height="60" as="geometry" />
        </mxCell>
        <mxCell id="rY-ANVgnu5SDja6ZdUfx-327" style="rounded=0;orthogonalLoop=1;jettySize=auto;html=1;dashed=1;dashPattern=8 8;" edge="1" parent="1" source="rY-ANVgnu5SDja6ZdUfx-331" target="rY-ANVgnu5SDja6ZdUfx-332">
          <mxGeometry relative="1" as="geometry" />
        </mxCell>
        <mxCell id="rY-ANVgnu5SDja6ZdUfx-328" value="&amp;lt;&amp;lt;extend&amp;gt;&amp;gt;" style="edgeLabel;html=1;align=center;verticalAlign=middle;resizable=0;points=[];" vertex="1" connectable="0" parent="rY-ANVgnu5SDja6ZdUfx-327">
          <mxGeometry x="-0.0375" y="-1" relative="1" as="geometry">
            <mxPoint x="34" as="offset" />
          </mxGeometry>
        </mxCell>
        <mxCell id="rY-ANVgnu5SDja6ZdUfx-329" style="rounded=0;orthogonalLoop=1;jettySize=auto;html=1;startArrow=none;startFill=0;dashed=1;dashPattern=8 8;" edge="1" parent="1" source="rY-ANVgnu5SDja6ZdUfx-331" target="rY-ANVgnu5SDja6ZdUfx-326">
          <mxGeometry relative="1" as="geometry" />
        </mxCell>
        <mxCell id="rY-ANVgnu5SDja6ZdUfx-330" value="&amp;lt;&amp;lt;extend&amp;gt;&amp;gt;" style="edgeLabel;html=1;align=center;verticalAlign=middle;resizable=0;points=[];" vertex="1" connectable="0" parent="rY-ANVgnu5SDja6ZdUfx-329">
          <mxGeometry x="-0.2993" relative="1" as="geometry">
            <mxPoint x="-41" y="3" as="offset" />
          </mxGeometry>
        </mxCell>
        <mxCell id="rY-ANVgnu5SDja6ZdUfx-331" value="Mark As Read" style="ellipse;whiteSpace=wrap;html=1;labelBackgroundColor=none;" vertex="1" parent="1">
          <mxGeometry x="1104" y="757" width="120" height="60" as="geometry" />
        </mxCell>
        <mxCell id="rY-ANVgnu5SDja6ZdUfx-332" value="&lt;div&gt;Check My Receipts&lt;/div&gt;" style="ellipse;whiteSpace=wrap;html=1;labelBackgroundColor=none;" vertex="1" parent="1">
          <mxGeometry x="1094" y="667" width="120" height="60" as="geometry" />
        </mxCell>
        <mxCell id="rY-ANVgnu5SDja6ZdUfx-333" value="Submit Payment" style="ellipse;whiteSpace=wrap;html=1;labelBackgroundColor=none;" vertex="1" parent="1">
          <mxGeometry x="1084" y="587" width="120" height="60" as="geometry" />
        </mxCell>
        <mxCell id="rY-ANVgnu5SDja6ZdUfx-334" value="&lt;div&gt;View My Shops&lt;/div&gt;" style="ellipse;whiteSpace=wrap;html=1;labelBackgroundColor=none;" vertex="1" parent="1">
          <mxGeometry x="1054" y="917" width="120" height="60" as="geometry" />
        </mxCell>
        <mxCell id="rY-ANVgnu5SDja6ZdUfx-335" value="Create User Accout" style="ellipse;whiteSpace=wrap;html=1;labelBackgroundColor=none;" vertex="1" parent="1">
          <mxGeometry x="1454" y="547" width="120" height="60" as="geometry" />
        </mxCell>
        <mxCell id="rY-ANVgnu5SDja6ZdUfx-336" value="View All Users" style="ellipse;whiteSpace=wrap;html=1;labelBackgroundColor=none;" vertex="1" parent="1">
          <mxGeometry x="1284" y="487" width="120" height="60" as="geometry" />
        </mxCell>
        <mxCell id="rY-ANVgnu5SDja6ZdUfx-337" value="Search user by name" style="ellipse;whiteSpace=wrap;html=1;labelBackgroundColor=none;" vertex="1" parent="1">
          <mxGeometry x="1304" y="577" width="120" height="60" as="geometry" />
        </mxCell>
        <mxCell id="rY-ANVgnu5SDja6ZdUfx-338" value="Search admin by name" style="ellipse;whiteSpace=wrap;html=1;labelBackgroundColor=none;" vertex="1" parent="1">
          <mxGeometry x="1354" y="767" width="120" height="60" as="geometry" />
        </mxCell>
        <mxCell id="rY-ANVgnu5SDja6ZdUfx-339" value="Create Admin Account by only with Highest Authority" style="ellipse;whiteSpace=wrap;html=1;labelBackgroundColor=none;" vertex="1" parent="1">
          <mxGeometry x="1394" y="687" width="120" height="60" as="geometry" />
        </mxCell>
        <mxCell id="rY-ANVgnu5SDja6ZdUfx-340" value="&lt;div&gt;Add New Shops&lt;/div&gt;" style="ellipse;whiteSpace=wrap;html=1;labelBackgroundColor=none;" vertex="1" parent="1">
          <mxGeometry x="1294" y="1277" width="120" height="60" as="geometry" />
        </mxCell>
        <mxCell id="rY-ANVgnu5SDja6ZdUfx-341" value="Remove or Assign User From/to Shop" style="ellipse;whiteSpace=wrap;html=1;labelBackgroundColor=none;" vertex="1" parent="1">
          <mxGeometry x="1544" y="1267" width="120" height="60" as="geometry" />
        </mxCell>
        <mxCell id="rY-ANVgnu5SDja6ZdUfx-342" value="Change Shop Tax Rate" style="ellipse;whiteSpace=wrap;html=1;labelBackgroundColor=none;" vertex="1" parent="1">
          <mxGeometry x="1434" y="1217" width="120" height="60" as="geometry" />
        </mxCell>
        <mxCell id="rY-ANVgnu5SDja6ZdUfx-343" style="rounded=0;orthogonalLoop=1;jettySize=auto;html=1;dashed=1;dashPattern=8 8;" edge="1" parent="1" source="rY-ANVgnu5SDja6ZdUfx-345" target="rY-ANVgnu5SDja6ZdUfx-384">
          <mxGeometry relative="1" as="geometry" />
        </mxCell>
        <mxCell id="rY-ANVgnu5SDja6ZdUfx-344" value="&amp;lt;&amp;lt;extend&amp;gt;&amp;gt; : on reject" style="edgeLabel;html=1;align=center;verticalAlign=middle;resizable=0;points=[];" vertex="1" connectable="0" parent="rY-ANVgnu5SDja6ZdUfx-343">
          <mxGeometry x="-0.0788" y="-2" relative="1" as="geometry">
            <mxPoint x="-9" y="20" as="offset" />
          </mxGeometry>
        </mxCell>
        <mxCell id="rY-ANVgnu5SDja6ZdUfx-345" value="Send Warning Messages" style="ellipse;whiteSpace=wrap;html=1;labelBackgroundColor=none;" vertex="1" parent="1">
          <mxGeometry x="1204" y="797" width="120" height="60" as="geometry" />
        </mxCell>
        <mxCell id="rY-ANVgnu5SDja6ZdUfx-346" value="&lt;div&gt;View All Receipts&lt;/div&gt;" style="ellipse;whiteSpace=wrap;html=1;labelBackgroundColor=none;" vertex="1" parent="1">
          <mxGeometry x="1274" y="1007" width="120" height="60" as="geometry" />
        </mxCell>
        <mxCell id="rY-ANVgnu5SDja6ZdUfx-347" value="View All Warning Messags" style="ellipse;whiteSpace=wrap;html=1;labelBackgroundColor=none;" vertex="1" parent="1">
          <mxGeometry x="1354" y="847" width="120" height="60" as="geometry" />
        </mxCell>
        <mxCell id="rY-ANVgnu5SDja6ZdUfx-348" value="Check Overdue Shops" style="ellipse;whiteSpace=wrap;html=1;labelBackgroundColor=none;" vertex="1" parent="1">
          <mxGeometry x="1224" y="1157" width="120" height="60" as="geometry" />
        </mxCell>
        <mxCell id="rY-ANVgnu5SDja6ZdUfx-349" value="View Admin Dashboard" style="ellipse;whiteSpace=wrap;html=1;labelBackgroundColor=none;" vertex="1" parent="1">
          <mxGeometry x="1474" y="467" width="120" height="60" as="geometry" />
        </mxCell>
        <mxCell id="rY-ANVgnu5SDja6ZdUfx-350" style="rounded=0;orthogonalLoop=1;jettySize=auto;html=1;labelBackgroundColor=none;fontColor=default;" edge="1" parent="1" source="rY-ANVgnu5SDja6ZdUfx-322" target="rY-ANVgnu5SDja6ZdUfx-323">
          <mxGeometry relative="1" as="geometry" />
        </mxCell>
        <mxCell id="rY-ANVgnu5SDja6ZdUfx-351" style="rounded=0;orthogonalLoop=1;jettySize=auto;html=1;labelBackgroundColor=none;fontColor=default;" edge="1" parent="1" source="rY-ANVgnu5SDja6ZdUfx-322" target="rY-ANVgnu5SDja6ZdUfx-325">
          <mxGeometry relative="1" as="geometry" />
        </mxCell>
        <mxCell id="rY-ANVgnu5SDja6ZdUfx-352" style="rounded=0;orthogonalLoop=1;jettySize=auto;html=1;" edge="1" parent="1" source="rY-ANVgnu5SDja6ZdUfx-322" target="rY-ANVgnu5SDja6ZdUfx-333">
          <mxGeometry relative="1" as="geometry" />
        </mxCell>
        <mxCell id="rY-ANVgnu5SDja6ZdUfx-353" style="edgeStyle=none;shape=connector;rounded=0;orthogonalLoop=1;jettySize=auto;html=1;strokeColor=default;align=center;verticalAlign=middle;fontFamily=Helvetica;fontSize=11;fontColor=default;labelBackgroundColor=default;endArrow=classic;" edge="1" parent="1" source="rY-ANVgnu5SDja6ZdUfx-322" target="rY-ANVgnu5SDja6ZdUfx-332">
          <mxGeometry relative="1" as="geometry" />
        </mxCell>
        <mxCell id="rY-ANVgnu5SDja6ZdUfx-354" style="edgeStyle=none;shape=connector;rounded=0;orthogonalLoop=1;jettySize=auto;html=1;strokeColor=default;align=center;verticalAlign=middle;fontFamily=Helvetica;fontSize=11;fontColor=default;labelBackgroundColor=default;endArrow=classic;" edge="1" parent="1" source="rY-ANVgnu5SDja6ZdUfx-322" target="rY-ANVgnu5SDja6ZdUfx-326">
          <mxGeometry relative="1" as="geometry" />
        </mxCell>
        <mxCell id="rY-ANVgnu5SDja6ZdUfx-355" style="edgeStyle=none;shape=connector;rounded=0;orthogonalLoop=1;jettySize=auto;html=1;entryX=1;entryY=1;entryDx=0;entryDy=0;strokeColor=default;align=center;verticalAlign=middle;fontFamily=Helvetica;fontSize=11;fontColor=default;labelBackgroundColor=default;endArrow=classic;" edge="1" parent="1" source="rY-ANVgnu5SDja6ZdUfx-376" target="rY-ANVgnu5SDja6ZdUfx-380">
          <mxGeometry relative="1" as="geometry" />
        </mxCell>
        <mxCell id="rY-ANVgnu5SDja6ZdUfx-356" style="edgeStyle=none;shape=connector;rounded=0;orthogonalLoop=1;jettySize=auto;html=1;strokeColor=default;align=center;verticalAlign=middle;fontFamily=Helvetica;fontSize=11;fontColor=default;labelBackgroundColor=default;endArrow=classic;" edge="1" parent="1" source="rY-ANVgnu5SDja6ZdUfx-376" target="rY-ANVgnu5SDja6ZdUfx-349">
          <mxGeometry relative="1" as="geometry" />
        </mxCell>
        <mxCell id="rY-ANVgnu5SDja6ZdUfx-357" style="edgeStyle=none;shape=connector;rounded=0;orthogonalLoop=1;jettySize=auto;html=1;strokeColor=default;align=center;verticalAlign=middle;fontFamily=Helvetica;fontSize=11;fontColor=default;labelBackgroundColor=default;endArrow=classic;" edge="1" parent="1" source="rY-ANVgnu5SDja6ZdUfx-376" target="rY-ANVgnu5SDja6ZdUfx-336">
          <mxGeometry relative="1" as="geometry" />
        </mxCell>
        <mxCell id="rY-ANVgnu5SDja6ZdUfx-358" style="edgeStyle=none;shape=connector;rounded=0;orthogonalLoop=1;jettySize=auto;html=1;strokeColor=default;align=center;verticalAlign=middle;fontFamily=Helvetica;fontSize=11;fontColor=default;labelBackgroundColor=default;endArrow=classic;" edge="1" parent="1" source="rY-ANVgnu5SDja6ZdUfx-376" target="rY-ANVgnu5SDja6ZdUfx-335">
          <mxGeometry relative="1" as="geometry" />
        </mxCell>
        <mxCell id="rY-ANVgnu5SDja6ZdUfx-359" style="edgeStyle=none;shape=connector;rounded=0;orthogonalLoop=1;jettySize=auto;html=1;strokeColor=default;align=center;verticalAlign=middle;fontFamily=Helvetica;fontSize=11;fontColor=default;labelBackgroundColor=default;endArrow=classic;" edge="1" parent="1" source="rY-ANVgnu5SDja6ZdUfx-376" target="rY-ANVgnu5SDja6ZdUfx-337">
          <mxGeometry relative="1" as="geometry" />
        </mxCell>
        <mxCell id="rY-ANVgnu5SDja6ZdUfx-360" style="edgeStyle=none;shape=connector;rounded=0;orthogonalLoop=1;jettySize=auto;html=1;strokeColor=default;align=center;verticalAlign=middle;fontFamily=Helvetica;fontSize=11;fontColor=default;labelBackgroundColor=default;endArrow=classic;" edge="1" parent="1" source="rY-ANVgnu5SDja6ZdUfx-376" target="rY-ANVgnu5SDja6ZdUfx-383">
          <mxGeometry relative="1" as="geometry" />
        </mxCell>
        <mxCell id="rY-ANVgnu5SDja6ZdUfx-361" style="edgeStyle=none;shape=connector;rounded=0;orthogonalLoop=1;jettySize=auto;html=1;strokeColor=default;align=center;verticalAlign=middle;fontFamily=Helvetica;fontSize=11;fontColor=default;labelBackgroundColor=default;endArrow=classic;" edge="1" parent="1" source="rY-ANVgnu5SDja6ZdUfx-376" target="rY-ANVgnu5SDja6ZdUfx-340">
          <mxGeometry relative="1" as="geometry" />
        </mxCell>
        <mxCell id="rY-ANVgnu5SDja6ZdUfx-362" style="edgeStyle=none;shape=connector;rounded=0;orthogonalLoop=1;jettySize=auto;html=1;strokeColor=default;align=center;verticalAlign=middle;fontFamily=Helvetica;fontSize=11;fontColor=default;labelBackgroundColor=default;endArrow=classic;" edge="1" parent="1" source="rY-ANVgnu5SDja6ZdUfx-376" target="rY-ANVgnu5SDja6ZdUfx-341">
          <mxGeometry relative="1" as="geometry" />
        </mxCell>
        <mxCell id="rY-ANVgnu5SDja6ZdUfx-363" style="edgeStyle=none;shape=connector;rounded=0;orthogonalLoop=1;jettySize=auto;html=1;strokeColor=default;align=center;verticalAlign=middle;fontFamily=Helvetica;fontSize=11;fontColor=default;labelBackgroundColor=default;endArrow=classic;" edge="1" parent="1" source="rY-ANVgnu5SDja6ZdUfx-376" target="rY-ANVgnu5SDja6ZdUfx-348">
          <mxGeometry relative="1" as="geometry" />
        </mxCell>
        <mxCell id="rY-ANVgnu5SDja6ZdUfx-364" style="edgeStyle=none;shape=connector;rounded=0;orthogonalLoop=1;jettySize=auto;html=1;strokeColor=default;align=center;verticalAlign=middle;fontFamily=Helvetica;fontSize=11;fontColor=default;labelBackgroundColor=default;endArrow=classic;" edge="1" parent="1" source="rY-ANVgnu5SDja6ZdUfx-376" target="rY-ANVgnu5SDja6ZdUfx-381">
          <mxGeometry relative="1" as="geometry" />
        </mxCell>
        <mxCell id="rY-ANVgnu5SDja6ZdUfx-365" style="edgeStyle=none;shape=connector;rounded=0;orthogonalLoop=1;jettySize=auto;html=1;strokeColor=default;align=center;verticalAlign=middle;fontFamily=Helvetica;fontSize=11;fontColor=default;labelBackgroundColor=default;endArrow=classic;" edge="1" parent="1" source="rY-ANVgnu5SDja6ZdUfx-376" target="rY-ANVgnu5SDja6ZdUfx-378">
          <mxGeometry relative="1" as="geometry" />
        </mxCell>
        <mxCell id="rY-ANVgnu5SDja6ZdUfx-366" style="edgeStyle=none;shape=connector;rounded=0;orthogonalLoop=1;jettySize=auto;html=1;strokeColor=default;align=center;verticalAlign=middle;fontFamily=Helvetica;fontSize=11;fontColor=default;labelBackgroundColor=default;endArrow=classic;" edge="1" parent="1" source="rY-ANVgnu5SDja6ZdUfx-376" target="rY-ANVgnu5SDja6ZdUfx-342">
          <mxGeometry relative="1" as="geometry" />
        </mxCell>
        <mxCell id="rY-ANVgnu5SDja6ZdUfx-367" style="edgeStyle=none;shape=connector;rounded=0;orthogonalLoop=1;jettySize=auto;html=1;strokeColor=default;align=center;verticalAlign=middle;fontFamily=Helvetica;fontSize=11;fontColor=default;labelBackgroundColor=default;endArrow=classic;" edge="1" parent="1" source="rY-ANVgnu5SDja6ZdUfx-376" target="rY-ANVgnu5SDja6ZdUfx-339">
          <mxGeometry relative="1" as="geometry" />
        </mxCell>
        <mxCell id="rY-ANVgnu5SDja6ZdUfx-368" style="edgeStyle=none;shape=connector;rounded=0;orthogonalLoop=1;jettySize=auto;html=1;strokeColor=default;align=center;verticalAlign=middle;fontFamily=Helvetica;fontSize=11;fontColor=default;labelBackgroundColor=default;endArrow=classic;" edge="1" parent="1" source="rY-ANVgnu5SDja6ZdUfx-376" target="rY-ANVgnu5SDja6ZdUfx-382">
          <mxGeometry relative="1" as="geometry" />
        </mxCell>
        <mxCell id="rY-ANVgnu5SDja6ZdUfx-369" style="edgeStyle=none;shape=connector;rounded=0;orthogonalLoop=1;jettySize=auto;html=1;strokeColor=default;align=center;verticalAlign=middle;fontFamily=Helvetica;fontSize=11;fontColor=default;labelBackgroundColor=default;endArrow=classic;" edge="1" parent="1" source="rY-ANVgnu5SDja6ZdUfx-376" target="rY-ANVgnu5SDja6ZdUfx-338">
          <mxGeometry relative="1" as="geometry" />
        </mxCell>
        <mxCell id="rY-ANVgnu5SDja6ZdUfx-370" style="edgeStyle=none;shape=connector;rounded=0;orthogonalLoop=1;jettySize=auto;html=1;strokeColor=default;align=center;verticalAlign=middle;fontFamily=Helvetica;fontSize=11;fontColor=default;labelBackgroundColor=default;endArrow=classic;" edge="1" parent="1" source="rY-ANVgnu5SDja6ZdUfx-376" target="rY-ANVgnu5SDja6ZdUfx-345">
          <mxGeometry relative="1" as="geometry" />
        </mxCell>
        <mxCell id="rY-ANVgnu5SDja6ZdUfx-371" style="edgeStyle=none;shape=connector;rounded=0;orthogonalLoop=1;jettySize=auto;html=1;strokeColor=default;align=center;verticalAlign=middle;fontFamily=Helvetica;fontSize=11;fontColor=default;labelBackgroundColor=default;endArrow=classic;" edge="1" parent="1" source="rY-ANVgnu5SDja6ZdUfx-376" target="rY-ANVgnu5SDja6ZdUfx-347">
          <mxGeometry relative="1" as="geometry" />
        </mxCell>
        <mxCell id="rY-ANVgnu5SDja6ZdUfx-372" style="edgeStyle=none;shape=connector;rounded=0;orthogonalLoop=1;jettySize=auto;html=1;strokeColor=default;align=center;verticalAlign=middle;fontFamily=Helvetica;fontSize=11;fontColor=default;labelBackgroundColor=default;endArrow=classic;" edge="1" parent="1" source="rY-ANVgnu5SDja6ZdUfx-376" target="rY-ANVgnu5SDja6ZdUfx-379">
          <mxGeometry relative="1" as="geometry" />
        </mxCell>
        <mxCell id="rY-ANVgnu5SDja6ZdUfx-373" style="edgeStyle=none;shape=connector;rounded=0;orthogonalLoop=1;jettySize=auto;html=1;strokeColor=default;align=center;verticalAlign=middle;fontFamily=Helvetica;fontSize=11;fontColor=default;labelBackgroundColor=default;endArrow=classic;" edge="1" parent="1" source="rY-ANVgnu5SDja6ZdUfx-376" target="rY-ANVgnu5SDja6ZdUfx-377">
          <mxGeometry relative="1" as="geometry" />
        </mxCell>
        <mxCell id="rY-ANVgnu5SDja6ZdUfx-374" style="edgeStyle=none;shape=connector;rounded=0;orthogonalLoop=1;jettySize=auto;html=1;strokeColor=default;align=center;verticalAlign=middle;fontFamily=Helvetica;fontSize=11;fontColor=default;labelBackgroundColor=default;endArrow=classic;" edge="1" parent="1" source="rY-ANVgnu5SDja6ZdUfx-376" target="rY-ANVgnu5SDja6ZdUfx-384">
          <mxGeometry relative="1" as="geometry" />
        </mxCell>
        <mxCell id="rY-ANVgnu5SDja6ZdUfx-375" style="edgeStyle=none;shape=connector;rounded=0;orthogonalLoop=1;jettySize=auto;html=1;strokeColor=default;align=center;verticalAlign=middle;fontFamily=Helvetica;fontSize=11;fontColor=default;labelBackgroundColor=default;endArrow=classic;" edge="1" parent="1" source="rY-ANVgnu5SDja6ZdUfx-376" target="rY-ANVgnu5SDja6ZdUfx-346">
          <mxGeometry relative="1" as="geometry" />
        </mxCell>
        <mxCell id="rY-ANVgnu5SDja6ZdUfx-376" value="Admin" style="shape=umlActor;verticalLabelPosition=bottom;verticalAlign=top;html=1;outlineConnect=0;labelBackgroundColor=none;" vertex="1" parent="1">
          <mxGeometry x="1764" y="797" width="91" height="160" as="geometry" />
        </mxCell>
        <mxCell id="rY-ANVgnu5SDja6ZdUfx-377" value="Check All User Payments" style="ellipse;whiteSpace=wrap;html=1;labelBackgroundColor=none;" vertex="1" parent="1">
          <mxGeometry x="1384" y="927" width="120" height="60" as="geometry" />
        </mxCell>
        <mxCell id="rY-ANVgnu5SDja6ZdUfx-378" value="Generate PDF Payment Report" style="ellipse;whiteSpace=wrap;html=1;labelBackgroundColor=none;" vertex="1" parent="1">
          <mxGeometry x="1384" y="1117" width="120" height="60" as="geometry" />
        </mxCell>
        <mxCell id="rY-ANVgnu5SDja6ZdUfx-379" value="Filter Payment with Status" style="ellipse;whiteSpace=wrap;html=1;labelBackgroundColor=none;" vertex="1" parent="1">
          <mxGeometry x="1269" y="897" width="120" height="60" as="geometry" />
        </mxCell>
        <mxCell id="rY-ANVgnu5SDja6ZdUfx-380" value="Admin Login" style="ellipse;whiteSpace=wrap;html=1;labelBackgroundColor=none;" vertex="1" parent="1">
          <mxGeometry x="1514" y="397" width="120" height="60" as="geometry" />
        </mxCell>
        <mxCell id="rY-ANVgnu5SDja6ZdUfx-381" value="Admin Logout" style="ellipse;whiteSpace=wrap;html=1;labelBackgroundColor=none;" vertex="1" parent="1">
          <mxGeometry x="1564" y="1417" width="120" height="60" as="geometry" />
        </mxCell>
        <mxCell id="rY-ANVgnu5SDja6ZdUfx-382" value="View All Admins" style="ellipse;whiteSpace=wrap;html=1;labelBackgroundColor=none;" vertex="1" parent="1">
          <mxGeometry x="1234" y="677" width="120" height="60" as="geometry" />
        </mxCell>
        <mxCell id="rY-ANVgnu5SDja6ZdUfx-383" value="View All Shops" style="ellipse;whiteSpace=wrap;html=1;labelBackgroundColor=none;" vertex="1" parent="1">
          <mxGeometry x="1434" y="1327" width="120" height="60" as="geometry" />
        </mxCell>
        <mxCell id="rY-ANVgnu5SDja6ZdUfx-384" value="Accept or Reject Payments" style="ellipse;whiteSpace=wrap;html=1;labelBackgroundColor=none;" vertex="1" parent="1">
          <mxGeometry x="1184" y="1097" width="120" height="60" as="geometry" />
        </mxCell>
        <mxCell id="rY-ANVgnu5SDja6ZdUfx-385" value="Send Receipt" style="ellipse;whiteSpace=wrap;html=1;labelBackgroundColor=none;" vertex="1" parent="1">
          <mxGeometry x="1104" y="1227" width="120" height="60" as="geometry" />
        </mxCell>
        <mxCell id="rY-ANVgnu5SDja6ZdUfx-386" style="rounded=0;orthogonalLoop=1;jettySize=auto;html=1;entryX=0.198;entryY=0.84;entryDx=0;entryDy=0;entryPerimeter=0;dashed=1;dashPattern=8 8;" edge="1" parent="1" source="rY-ANVgnu5SDja6ZdUfx-385" target="rY-ANVgnu5SDja6ZdUfx-384">
          <mxGeometry relative="1" as="geometry" />
        </mxCell>
        <mxCell id="rY-ANVgnu5SDja6ZdUfx-387" value="&amp;lt;&amp;lt;extend&amp;gt;&amp;gt; : on accept" style="edgeLabel;html=1;align=center;verticalAlign=middle;resizable=0;points=[];" vertex="1" connectable="0" parent="rY-ANVgnu5SDja6ZdUfx-386">
          <mxGeometry x="-0.2029" y="-1" relative="1" as="geometry">
            <mxPoint x="-65" y="-9" as="offset" />
          </mxGeometry>
        </mxCell>
      </root>
    </mxGraphModel>
  </diagram>
</mxfile>
